<?xml version="1.0" encoding="UTF-8" standalone="no"?>
<!-- Created with Inkscape (http://www.inkscape.org/) -->

<svg
   width="492.31705"
   height="176.08318"
   viewBox="0 0 492.31705 176.08318"
   version="1.1"
   id="svg1"
   inkscape:export-filename="codeblockskids.min.svg"
   inkscape:export-xdpi="96"
   inkscape:export-ydpi="96"
   xmlns:inkscape="http://www.inkscape.org/namespaces/inkscape"
   xmlns:sodipodi="http://sodipodi.sourceforge.net/DTD/sodipodi-0.dtd"
   xmlns="http://www.w3.org/2000/svg"
   xmlns:svg="http://www.w3.org/2000/svg">
  <sodipodi:namedview
     id="namedview1"
     pagecolor="#ffffff"
     bordercolor="#000000"
     borderopacity="0.25"
     inkscape:showpageshadow="2"
     inkscape:pageopacity="0.0"
     inkscape:pagecheckerboard="0"
     inkscape:deskcolor="#d1d1d1"
     inkscape:document-units="px">
    <inkscape:page
       x="0"
       y="0"
       width="492.31705"
       height="176.08318"
       id="page2"
       margin="0"
       bleed="0" />
  </sodipodi:namedview>
  <defs
     id="defs1" />
  <g
     inkscape:label="Layer 1"
     inkscape:groupmode="layer"
     id="layer1"
     transform="translate(-9.5924901,-35.12419)">
    <path
       data-v-6557afc3=""
       fill="#ffffff"
       d="m 277.59863,131.66547 h 55.61651 c 5.66546,0 10.28379,4.40799 10.28379,9.86311 v 59.81414 c 0,5.45664 -4.61833,9.86464 -10.28532,9.86464 H 22.394263 c -7.136318,0 -12.8017725,-5.45666 -12.8017725,-12.17226 v -58.97433 c 0,-4.19765 2.3076415,-7.97617 5.6654545,-10.07497 -3.566611,-2.93867 -5.6654545,-7.34667 -5.6654545,-12.17226 V 51.074972 c 0,-8.816 7.1347825,-15.95078 15.9492265,-15.95078 H 270.04472 c 8.81444,0 15.94922,7.13478 15.94922,15.9492 v 11.33397 h 48.69054 a 8.9582832,8.9582832 0 0 1 9.02479,9.02479 v 33.369308 a 8.9582832,8.9582832 0 0 1 -9.02479,9.02479 h -48.89934 v 3.77696 c 0,6.29645 -3.35783,11.54274 -8.18496,14.06226 z"
       class="st0"
       id="path1"
       style="display:inline;stroke-width:1.54666"
       inkscape:export-filename="KIDS.svg"
       inkscape:export-xdpi="96"
       inkscape:export-ydpi="96" />
    <path
       data-v-6557afc3=""
       fill="#ffffff"
       d="m 70.034633,57.159512 h 9.65273 v 48.900918 h -9.65273 V 85.703232 H 50.72452 V 106.06043 H 40.85988 V 57.159512 h 9.86464 v 19.72926 h 19.30854 z m 45.751907,19.30858 c 2.7283,3.98732 3.77694,9.02479 2.93867,15.32126 H 95.429313 c 0.83831,4.8256 3.5666,7.13478 8.393777,7.13478 3.14901,0 5.45661,-1.25899 7.13628,-3.56663 l 6.92599,4.19766 c -1.259,2.307638 -3.149,3.987318 -5.87733,5.456638 -2.51798,1.259 -5.45665,2.09881 -8.60412,2.09881 -5.037477,0 -9.233567,-1.67966 -12.382597,-4.82713 -3.14747,-3.359348 -4.82714,-7.555458 -4.82714,-13.012078 0,-5.45664 1.46934,-9.86464 4.61681,-13.22398 3.14745,-3.35937 7.13631,-5.03597 12.172247,-5.03597 5.87734,-0.41915 10.07499,1.46936 12.80331,5.45664 z m 9.86308,-22.45603 h 9.44393 v 52.048368 h -9.44393 z m 17.42007,0 h 9.44393 v 52.048368 h -9.44393 z m 50.78937,34.62829 c 0,5.24782 -1.67966,9.44547 -4.82713,13.012078 -3.14747,3.35937 -7.34666,5.24785 -12.59294,5.24785 -5.24627,0 -9.44393,-1.67968 -12.5914,-5.24785 -3.149,-3.356258 -4.82713,-7.764258 -4.82713,-13.012078 0,-5.24628 1.67813,-9.65274 4.82559,-13.01211 3.14901,-3.35626 7.34667,-5.03594 12.59294,-5.03594 5.24785,0 9.44547,1.67814 12.59294,5.03594 3.14747,3.35784 4.82559,7.76583 4.82559,13.01211 z m 14.69024,5.87732 v 11.542758 l -5.45664,8.39531 h -9.65273 l 5.87578,-9.86465 V 94.517672 Z"
       class="st0"
       id="path2"
       style="stroke-width:1.54666" />
    <path
       data-v-6557afc3=""
       fill="#fec542"
       d="m 52.404195,170.49139 c 0.420669,4.19766 3.778506,7.9746 8.184942,8.60411 a 10.390495,10.390495 0 0 0 8.605647,-2.93866 l 0.208834,-0.20884 a 6.5114594,6.5114594 0 0 1 3.778505,-1.88847 h 1.25897 a 6.5114594,6.5114594 0 0 1 3.77851,1.88847 v 24.34452 c 0,3.56815 -2.93866,6.29647 -6.717179,6.29647 H 21.133757 c -3.778518,0 -6.715638,-2.72832 -6.715638,-6.29493 v -60.44362 c 0,-3.56817 2.938669,-6.2965 6.715638,-6.2965 H 41.70129 l 0.419145,0.41917 0.21031,0.21031 9.443935,8.816 c 2.309178,2.09727 6.50684,2.09727 8.605647,0 l 9.443935,-8.816 0.21031,-0.21031 0.419145,-0.41917 H 71.5024 c 1.050183,0 1.890013,0.21031 2.728323,0.62951 0.42068,0.21031 0.63101,0.41914 1.05018,0.41914 0.21031,0.21031 0.62948,0.42068 0.83983,0.62948 1.25899,1.0502 2.09884,2.72832 2.09884,4.61837 v 23.29585 a 6.5114594,6.5114594 0 0 1 -3.77852,1.88849 h -1.25899 a 6.5114594,6.5114594 0 0 1 -3.778482,-1.88849 l -0.208834,-0.21031 c -1.679699,-1.88847 -4.407984,-3.14745 -7.136318,-3.14745 -5.877325,0 -10.492583,5.03594 -9.65427,10.70289 z"
       class="st1"
       id="path3"
       style="stroke-width:1.54666" />
    <path
       data-v-6557afc3=""
       fill="#3eaa5f"
       d="m 79.687363,106.06043 h -9.65273 V 85.703232 H 50.72452 V 106.2708 H 41.070214 V 57.159512 h 9.654306 v 19.72926 h 19.30854 v -19.72926 h 9.652733 V 106.06043 Z M 118.72521,91.789352 H 95.429313 c 0.83831,4.8256 3.5666,7.13478 8.393777,7.13478 3.14901,0 5.45661,-1.25899 7.13628,-3.56663 l 6.92599,4.19766 c -1.259,2.307638 -3.149,3.987318 -5.87733,5.456638 -2.51798,1.259 -5.45665,2.09881 -8.60412,2.09881 -5.037477,0 -9.233567,-1.67966 -12.382597,-4.82713 -3.14747,-3.359348 -4.82714,-7.555458 -4.82714,-13.012078 0,-5.45818 1.46934,-9.86464 4.61681,-13.22398 3.14745,-3.35937 7.13631,-5.03597 12.172247,-5.03597 5.45819,0 9.65428,1.88851 12.59294,5.87732 2.93867,3.35628 3.98731,8.60411 3.14904,14.90058 z m 16.36988,14.271078 h -9.44547 V 54.012062 h 9.44547 z m 17.41853,0 h -9.44393 V 54.012062 h 9.44393 z m 23.92691,0.83985 c -5.24781,0 -9.44547,-1.67968 -12.59294,-5.24785 -3.149,-3.356258 -4.82713,-7.764258 -4.82713,-13.012078 0,-5.24628 1.67813,-9.65274 4.82559,-13.01211 3.14901,-3.35626 7.34667,-5.03594 12.59294,-5.03594 5.24785,0 9.44547,1.67814 12.59294,5.03594 3.14747,3.35784 4.82559,7.76583 4.82559,13.01211 0,5.24782 -1.67812,9.44547 -4.82559,13.012078 -3.14747,3.35937 -7.34666,5.24785 -12.59294,5.24785 z m 32.10877,-0.83985 -5.45664,8.39531 h -9.65273 l 5.87578,-10.07499 V 94.307342 h 9.23359 z"
       class="st2"
       id="path4"
       style="stroke-width:1.54666" />
    <path
       data-v-6557afc3=""
       fill="#3eaa5f"
       d="m 234.57503,82.135082 v 12.17226 c 0,2.09882 0.83828,3.98729 2.30762,5.45662 1.46932,1.469328 3.35782,2.098838 5.24629,2.098838 0.83983,0 1.89002,-0.21031 2.72834,-0.41917 v 3.77697 a 8.9582832,8.9582832 0 0 0 9.02479,9.02479 h 27.28317 v 3.77848 c 0,6.08614 -5.03594,11.12208 -11.12206,11.12208 H 75.700053 l -0.83828,0.83985 -1.0502,1.05018 -3.147461,2.93867 h -0.629479 l -0.21031,0.20883 -9.443936,8.81598 c -2.309177,2.09729 -6.506839,2.09729 -8.605646,0 l -9.44396,-8.81598 -0.419144,-0.21031 -0.420681,-0.41914 -3.356264,-2.93867 -1.46934,-1.25898 -0.420669,-0.41915 h -10.9133 c -1.469328,0 -2.728298,-0.21031 -3.987292,-0.83984 -4.19765,-1.67968 -7.136306,-5.667 -7.136306,-10.28533 V 50.866222 c 0,-6.08766 5.0375,-11.12364 11.123598,-11.12364 H 269.83283 c 6.08614,0 11.12364,5.03598 11.12364,11.12364 v 11.54274 H 253.6733 a 8.9582832,8.9582832 0 0 0 -9.0248,9.02479 v 3.77698 c -0.83985,-0.41917 -1.67969,-0.41917 -2.72832,-0.41917 -3.98731,-0.21031 -7.34666,3.35627 -7.34666,7.34512 z"
       class="st2"
       id="path5"
       style="stroke-width:1.54666" />
    <path
       data-v-6557afc3=""
       fill="#3eaa5f"
       d="m 70.034633,57.159512 h 9.65273 v 48.900918 h -9.65273 V 85.703232 H 50.72452 V 106.06043 H 40.85988 V 57.159512 h 9.86464 v 19.72926 h 19.30854 z m 55.614987,-3.14745 h 9.44393 v 52.048368 h -9.44393 z m 17.42007,0 h 9.44393 v 52.048368 h -9.44393 z m 65.47961,40.50561 v 11.542758 l -5.45664,8.39531 h -9.65273 l 5.87578,-9.86465 V 94.517672 Z"
       class="st2"
       id="path6"
       style="stroke-width:1.54666" />
    <path
       data-v-6557afc3=""
       fill="#ffffff"
       d="m 330.06768,86.332742 -2.30914,2.72829 -2.93867,3.56817 c -0.42071,0.62949 -1.259,0.62949 -1.88851,0 l -2.93866,-3.56817 -2.30915,-2.72829 c -0.62952,-0.83986 0,-2.09884 0.83982,-2.09884 h 10.49412 c 1.259,0.21031 1.8885,1.25898 1.04865,2.09884 z"
       class="st0"
       id="path7"
       style="stroke-width:1.54666" />
    <path
       data-v-6557afc3=""
       fill="#fa504b"
       d="m 338.6718,71.432152 v 33.369308 a 4.2100218,4.2100218 0 0 1 -4.19766,4.19762 h -80.59207 a 4.2100218,4.2100218 0 0 1 -4.19766,-4.19762 v -8.605648 c 0,-1.46933 -1.46933,-2.30764 -2.72833,-1.67814 l -3.35626,1.88849 c -1.89001,1.05018 -3.98885,-0.21031 -3.98885,-2.30919 v -12.17222 c 0,-2.09885 2.30918,-3.35628 3.98731,-2.30766 l 3.3578,1.88694 c 1.26054,0.63105 2.72833,-0.20882 2.72833,-1.67813 v -8.60408 a 4.2100218,4.2100218 0 0 1 4.19766,-4.19765 h 80.59207 c 2.30761,0.21031 4.19766,2.0988 4.19766,4.40798 z"
       class="st3"
       id="path8"
       style="stroke-width:1.54666" />
    <path
       data-v-6557afc3=""
       fill="#fa504b"
       d="m 330.06768,86.332742 -2.30914,2.72829 -2.93867,3.56817 c -0.42071,0.62949 -1.259,0.62949 -1.88851,0 l -2.93866,-3.56817 -2.30915,-2.72829 c -0.62952,-0.83986 0,-2.09884 0.83982,-2.09884 h 10.49412 c 1.259,0.21031 1.8885,1.25898 1.04865,2.09884 z"
       class="st3"
       id="path9"
       style="stroke-width:1.54666" />
    <path
       data-v-6557afc3=""
       fill="#ffffff"
       d="m 330.06768,86.332742 -2.30914,2.72829 -2.93867,3.56817 c -0.42071,0.62949 -1.259,0.62949 -1.88851,0 l -2.93866,-3.56817 -2.30915,-2.72829 c -0.62952,-0.83986 0,-2.09884 0.83982,-2.09884 h 10.49412 c 1.259,0.21031 1.8885,1.25898 1.04865,2.09884 z m -20.98824,5.45661 c 0,0.62952 -0.42068,1.04866 -1.0502,1.04866 h -47.43 c -0.63105,0 -1.05019,-0.41914 -1.05019,-1.04866 0,-0.62948 0.41914,-1.05018 1.05019,-1.05018 h 47.43 c 0.62952,0 1.0502,0.6295 1.0502,1.05018 z m 0,-6.29647 c 0,0.62949 -0.42068,1.0502 -1.0502,1.0502 h -47.43 c -0.63105,0 -1.05019,-0.42071 -1.05019,-1.0502 0,-0.62948 0.41914,-1.04865 1.05019,-1.04865 h 47.43 c 0.62952,0 1.0502,0.41761 1.0502,1.04865 z M 146.00835,140.68873 h 9.44394 v 52.04836 h -9.44394 z m 88.35633,43.65459 c -1.05018,2.51798 -2.93865,4.82559 -5.45664,6.5053 -2.51949,1.67966 -5.87733,2.72829 -9.86462,2.72829 -5.03747,0 -9.02479,-1.67813 -12.38259,-5.03594 -3.14746,-3.3578 -4.82559,-7.7658 -4.82559,-13.22244 0,-5.45662 1.67813,-9.86462 4.82559,-13.22242 3.149,-3.14747 7.34667,-4.82561 12.17226,-4.82561 3.77848,0 6.92595,1.04866 9.65427,2.93714 2.51952,1.88847 4.40799,4.19765 5.24784,6.92594 l -7.13631,3.56818 c -1.46933,-3.3578 -3.98732,-5.0375 -7.55547,-5.0375 -2.51797,0 -4.40798,0.83985 -5.87732,2.72832 -1.46933,1.88847 -2.30762,4.19765 -2.30762,7.13632 0,2.93865 0.83983,5.24627 2.30915,7.13474 1.46935,1.88847 3.56662,2.72832 6.08614,2.72832 3.56815,0 5.87732,-1.67812 7.34665,-4.61679 z m 37.77731,8.39531 h -10.28533 l -9.23358,-15.95078 -3.9873,4.19767 v 11.75311 h -9.02481 v -52.0499 h 9.02481 v 28.3349 l 11.12361,-11.12517 h 11.75312 l -11.96346,11.96345 z m 25.39471,-16.58025 c 1.67812,1.67813 2.51797,3.98731 2.51797,7.13478 0,3.149 -1.25899,5.66695 -3.7785,7.55546 -2.51799,1.89001 -5.45666,2.72829 -8.81446,2.72829 -3.77695,0 -6.92599,-0.83828 -9.44394,-2.72829 -2.51798,-1.67814 -3.98731,-4.19766 -4.82559,-7.55546 l 7.9746,-2.09885 c 0.83828,3.35938 2.72832,5.0375 5.87578,5.0375 1.259,0 2.09882,-0.21031 2.93867,-0.83985 0.83828,-0.62947 1.04865,-1.25898 1.04865,-2.0988 0,-0.41917 0,-0.62952 -0.21031,-1.04866 -0.20883,-0.42067 -0.20883,-0.62948 -0.41917,-0.83985 l -0.62948,-0.62948 c -0.21031,-0.21031 -0.62948,-0.41914 -0.83985,-0.62948 -0.21031,-0.21031 -0.62948,-0.21031 -1.04862,-0.62951 -0.42072,-0.21031 -0.83985,-0.42068 -1.0502,-0.42068 -0.20883,-0.20883 -0.62947,-0.20883 -1.25899,-0.62951 -0.62948,-0.20883 -1.04865,-0.41914 -1.25898,-0.41914 -2.93867,-1.04863 -5.24629,-2.51795 -6.71561,-4.19765 -1.46933,-1.67812 -2.09885,-3.56815 -2.09885,-6.0861 0,-3.14747 1.259,-5.87734 3.56817,-7.76426 2.30762,-1.89005 5.45662,-2.93867 8.81446,-2.93867 3.35626,0 6.08612,0.83829 8.39374,2.51795 2.30918,1.67814 3.77852,3.98732 4.19765,6.92599 l -7.55545,2.0988 c -0.83829,-2.93865 -2.72832,-4.40799 -5.24629,-4.40799 -1.04864,0 -1.88847,0.21031 -2.72832,0.83986 -0.6295,0.62948 -1.04865,1.25898 -1.04865,2.30918 0,1.04862 0.4176,1.6781 1.04865,2.30761 0.83985,0.62948 2.09882,1.05019 3.77695,1.88847 4.40799,1.46933 7.13632,2.93866 8.81599,4.61834 z m 11.33239,5.03593 h 9.23514 v 11.75312 h -9.23514 z m 10.49413,-37.35658 -1.88847,32.95012 h -7.76581 l -1.6797,-32.95012 z M 79.687363,57.159512 v 48.900918 h -9.65273 V 85.703232 H 50.72452 V 106.06043 H 40.85988 V 57.159512 h 9.86464 v 19.72926 h 19.30854 v -19.72926 z m 36.099177,19.30858 c -2.72832,-3.98728 -6.92597,-5.87732 -12.59296,-5.87732 -5.035947,0 -9.024797,1.67967 -12.172267,5.03747 -3.14747,3.35784 -4.61679,7.76583 -4.61679,13.22399 0,5.45511 1.67812,9.65273 4.82559,13.010568 3.149,3.3578 7.34666,4.82713 12.384167,4.82713 3.14747,0 6.08614,-0.6295 8.60409,-2.09884 2.51799,-1.46933 4.61679,-3.14746 5.87732,-5.456608 l -6.92594,-4.19766 c -1.6797,2.51952 -3.98886,3.56814 -7.13632,3.56814 -4.827147,0 -7.555477,-2.30915 -8.395327,-7.13629 h 23.295877 c 0.6295,-5.87579 -0.41914,-11.12206 -3.14744,-14.90058 z m -20.148437,8.60566 c 0.42071,-2.09884 1.259,-3.77852 2.72833,-5.03751 1.258993,-1.25896 2.938667,-1.67968 5.037477,-1.67968 2.30919,0 3.98732,0.63105 5.24631,2.09885 1.25897,1.46776 1.88847,2.93866 1.88847,4.82714 H 95.639683 v -0.20884 z m 30.011517,-31.06169 h 9.44393 v 52.048368 h -9.44393 z m 17.42007,0 h 9.44393 v 52.048368 h -9.44393 z m 45.96224,21.61618 c -3.14747,-3.35626 -7.34666,-5.03594 -12.59294,-5.03594 -5.24627,0 -9.44393,1.67814 -12.5914,5.03594 -3.149,3.35937 -4.82713,7.76583 -4.82713,13.01211 0,5.24782 1.67813,9.44547 4.82559,13.012078 3.14901,3.35937 7.34667,5.24785 12.59294,5.24785 5.24785,0 9.44547,-1.67968 12.59294,-5.24785 3.14747,-3.356238 4.82559,-7.764258 4.82559,-13.012078 0,-5.24628 -1.46779,-9.65274 -4.82559,-13.01211 z m -6.71561,19.93809 c -1.46933,1.89001 -3.56815,2.7283 -5.87733,2.7283 -2.30761,0 -4.40799,-0.83829 -5.87732,-2.7283 -1.46779,-1.88693 -2.30762,-4.19766 -2.30762,-6.92598 0,-2.72832 0.83983,-5.03594 2.30915,-6.92441 1.67814,-1.6797 3.56818,-2.72833 5.87733,-2.72833 2.30764,0 4.40646,0.83829 5.87579,2.72833 1.46932,1.88691 2.30761,4.19609 2.30761,6.92441 0,2.72832 -0.62948,5.03747 -2.30761,6.92598 z m 26.23298,-1.04866 v 11.542758 l -5.45664,8.39531 h -9.65273 l 5.87578,-9.86465 V 94.517672 Z"
       class="st0"
       id="path10"
       style="stroke-width:1.54666" />
    <path
       data-v-6557afc3=""
       fill="#23234b"
       d="m 146.00835,140.68873 h 9.44394 v 52.04836 h -9.44394 z m 45.96224,21.61771 c -3.14901,-3.3578 -7.34666,-5.03747 -12.59293,-5.03747 -5.24628,0 -9.44393,1.67967 -12.59294,5.03747 -3.14746,3.35782 -4.8256,7.76426 -4.8256,13.01209 0,5.24631 1.67814,9.44396 4.8256,13.0121 3.14901,3.3578 7.34666,5.24628 12.59294,5.24628 5.24627,0 9.44392,-1.67813 12.59293,-5.24628 3.14746,-3.3578 4.8256,-7.76426 4.8256,-13.0121 0,-5.24628 -1.67814,-9.65427 -4.8256,-13.01209 z m -6.71714,19.93652 c -1.67814,1.67968 -3.56661,2.72987 -5.87579,2.72987 -2.30919,0 -4.408,-0.83985 -5.87734,-2.72833 -1.46932,-1.88847 -2.3076,-4.19765 -2.3076,-6.92597 0,-2.7283 0.83981,-5.03748 2.30915,-6.92595 1.67813,-1.88847 3.5666,-2.72832 5.87579,-2.72832 2.30918,0 4.40798,0.83985 5.87733,2.72832 1.46932,1.67967 2.30761,3.98728 2.30761,6.92595 0,2.93866 -0.83982,5.0375 -2.30915,6.92597 z m 49.11123,2.10036 c -1.05018,2.51798 -2.93865,4.82559 -5.45664,6.5053 -2.51949,1.67966 -5.87733,2.72829 -9.86462,2.72829 -5.03747,0 -9.02479,-1.67813 -12.38259,-5.03594 -3.14746,-3.3578 -4.82559,-7.7658 -4.82559,-13.22244 0,-5.45662 1.67813,-9.86462 4.82559,-13.22242 3.149,-3.14747 7.34667,-4.82561 12.17226,-4.82561 3.77848,0 6.92595,1.04866 9.65427,2.93714 2.51952,1.88847 4.40799,4.19765 5.24784,6.92594 l -7.13631,3.56818 c -1.46933,-3.3578 -3.98732,-5.0375 -7.55547,-5.0375 -2.51797,0 -4.40798,0.83985 -5.87732,2.72832 -1.46933,1.88847 -2.30762,4.19765 -2.30762,7.13632 0,2.93865 0.83983,5.24627 2.30915,7.13474 1.46935,1.88847 3.56662,2.72832 6.08614,2.72832 3.56815,0 5.87732,-1.67812 7.34665,-4.61679 z m 37.77731,8.39531 h -10.28533 l -9.23358,-15.95078 -3.9873,4.19767 v 11.75311 h -9.02481 v -52.0499 h 9.02481 v 28.3349 l 11.12361,-11.12517 h 11.75312 l -11.96346,11.96345 z m 25.39471,-16.58025 c 1.67812,1.67813 2.51797,3.98731 2.51797,7.13478 0,3.149 -1.25899,5.66695 -3.7785,7.55546 -2.51799,1.89001 -5.45666,2.72829 -8.81446,2.72829 -3.77695,0 -6.92599,-0.83828 -9.44394,-2.72829 -2.51798,-1.67814 -3.98731,-4.19766 -4.82559,-7.55546 l 7.9746,-2.09885 c 0.83828,3.35938 2.72832,5.0375 5.87578,5.0375 1.259,0 2.09882,-0.21031 2.93867,-0.83985 0.83828,-0.62947 1.04865,-1.25898 1.04865,-2.0988 0,-0.41917 0,-0.62952 -0.21031,-1.04866 -0.20883,-0.42067 -0.20883,-0.62948 -0.41917,-0.83985 l -0.62948,-0.62948 c -0.21031,-0.21031 -0.62948,-0.41914 -0.83985,-0.62948 -0.21031,-0.21031 -0.62948,-0.21031 -1.04862,-0.62951 -0.42072,-0.21031 -0.83985,-0.42068 -1.0502,-0.42068 -0.20883,-0.20883 -0.62947,-0.20883 -1.25899,-0.62951 -0.62948,-0.20883 -1.04865,-0.41914 -1.25898,-0.41914 -2.93867,-1.04863 -5.24629,-2.51795 -6.71561,-4.19765 -1.46933,-1.67812 -2.09885,-3.56815 -2.09885,-6.0861 0,-3.14747 1.259,-5.87734 3.56817,-7.76426 2.30762,-1.89005 5.45662,-2.93867 8.81446,-2.93867 3.35626,0 6.08612,0.83829 8.39374,2.51795 2.30918,1.67814 3.77852,3.98732 4.19765,6.92599 l -7.55545,2.0988 c -0.83829,-2.93865 -2.72832,-4.40799 -5.24629,-4.40799 -1.04864,0 -1.88847,0.21031 -2.72832,0.83986 -0.6295,0.62948 -1.04865,1.25898 -1.04865,2.30918 0,1.04862 0.4176,1.67812 1.04865,2.30761 0.83985,0.62948 2.09882,1.05019 3.77695,1.88847 4.40799,1.46933 7.13632,2.93866 8.81599,4.61834 z m 11.33239,5.03593 v 11.75465 h 9.2336 v -11.75465 z m -0.83985,-37.35658 1.89005,32.73979 h 7.55546 l 1.88694,-32.73979 z m -171.04721,28.12145 c -1.46781,-2.30761 -3.56661,-3.77695 -6.0846,-4.61522 2.09884,-0.83985 3.77698,-2.30918 5.03594,-4.19767 1.46933,-1.89003 2.09884,-4.19765 2.09884,-6.92597 0,-3.77848 -1.25899,-6.71561 -3.77694,-9.02479 -2.51799,-2.30915 -6.08613,-3.3578 -10.49412,-3.3578 h -18.46719 v 48.9009 h 17.83767 c 5.24631,0 9.23359,-1.26053 11.96346,-3.56815 2.72832,-2.30918 4.19765,-5.45664 4.19765,-9.44396 -0.21031,-2.93867 -0.83985,-5.45662 -2.30918,-7.76579 z m -22.45295,-19.72461 h 9.02326 c 1.89002,0 3.35935,0.62949 4.40799,1.46934 1.0502,1.04864 1.46934,2.30761 1.46934,3.98728 0,1.67816 -0.62951,2.93869 -1.46934,3.98731 -1.04864,1.04866 -2.51797,1.46934 -4.40799,1.46934 h -9.02326 z m 13.43125,30.43061 c -1.25899,1.0502 -2.93865,1.67971 -5.24631,1.67971 h -8.18494 v -12.59297 h 7.76428 c 2.51951,0 4.40798,0.62951 5.66697,1.67969 1.25897,1.04863 1.88848,2.7283 1.88848,4.82558 0,1.89004 -0.62951,3.35937 -1.88694,4.40799 z"
       class="st4"
       id="path11"
       style="stroke-width:1.54666" />
    <path
       data-v-6557afc3=""
       fill="#23234b"
       d="m 146.00835,140.68873 h 9.44394 v 52.04836 h -9.44394 z"
       class="st4"
       id="path12"
       style="stroke-width:1.54666" />
    <path
       style="font-size:26.6667px;font-family:'Cream and sugar';-inkscape-font-specification:'Cream and sugar';white-space:pre;fill:#4bc0fa;fill-opacity:1;stroke-width:2.96259"
       d="m 491.69795,120.98982 c -7.42378,0.0461 -8.73149,9.37208 -0.54847,9.6454 5.56119,1.3894 13.0997,5.98632 10.06324,12.70684 -4.25817,5.87907 -9.47711,11.17549 -15.23349,15.58842 -3.31784,0.0917 -2.71191,-5.99431 -3.86507,-8.76869 -1.18726,-2.29552 -0.18753,-3.84151 1.913,-5.01041 3.52203,-2.02484 7.36461,-6.65142 0.92418,-7.93473 -5.46336,-2.47353 -12.99151,-3.04412 -15.80287,-9.12776 -1.59085,-7.12291 5.12559,-13.55544 11.34867,-15.22359 5.05185,-1.35421 11.08524,-4.24802 15.99751,-1.18954 4.56761,3.61403 -1.58772,7.86898 -4.7967,9.31406 z"
       id="text12"
       aria-label="KIDS"
       sodipodi:nodetypes="ccccccccscc" />
    <path
       d="m 401.19258,148.16512 c -3.68312,4.96896 -6.79764,10.49442 -10.47911,15.36074 -3.44627,2.60161 -5.70792,-3.20133 -8.5753,-4.5481 -3.39725,-2.5382 -7.88757,-7.83234 -10.39446,-8.57321 -0.66203,4.88937 4.81429,13.1882 -2.91903,12.97232 -4.13426,0.73405 -11.47474,1.86919 -11.61586,-1.21323 -0.41772,-11.88229 -0.64832,-17.22177 -0.95912,-24.5826 0.27302,-13.60884 -0.22066,-27.31734 1.55215,-40.837468 3.32743,-0.90738 7.58992,-1.41964 12.8349,-2.0787 2.35541,-0.29598 12.7115,-2.39036 11.37711,1.47885 -3.08755,13.407558 -7.58487,26.606038 -8.49358,40.408958 -1.17407,5.31801 2.4004,1.40665 4.51729,0.12275 4.04675,-2.69732 7.84839,-5.86121 12.26961,-7.91449 2.00114,1.35087 3.91354,3.7413 2.89017,5.51533 -2.05435,3.26368 -8.7053,7.00528 -7.91869,9.43219 5.29633,1.53533 11.19554,1.18821 15.91392,4.45662 z"
       style="font-size:26.6667px;font-family:'Cream and sugar';-inkscape-font-specification:'Cream and sugar';white-space:pre;fill:#3eaa5f;fill-opacity:1;stroke-width:2.96259"
       id="path1-7"
       sodipodi:nodetypes="scccccccsccccccss" />
    <path
       d="m 400.43529,107.21473 c 0.83191,-7.331618 4.36692,-16.117478 12.19691,-18.154108 5.32216,-0.75451 11.07457,2.21769 14.27182,6.37653 3.20082,7.761518 0.49625,17.139598 -4.76171,23.376138 -5.00565,5.55586 -14.54728,3.99643 -19.4319,-0.8772 -2.75494,-2.95819 -1.64122,-7.11289 -2.27512,-10.72136 z m 3.78616,54.82075 c 0.0332,-10.51277 0.34367,-21.06966 1.97198,-31.47265 5.00704,-0.50137 11.15682,-2.60083 11.00487,5.2516 -0.19315,9.9748 4.00324,19.77141 8.63592,28.66629 -1.54122,2.8635 -6.64856,-0.32674 -9.30646,-0.29343 -4.02753,-1.25381 -8.21963,-1.32194 -12.30631,-2.15194 z"
       style="font-size:26.6667px;font-family:'Cream and sugar';-inkscape-font-specification:'Cream and sugar';white-space:pre;fill:#fec542;fill-opacity:1;stroke-width:2.96259"
       id="path1-6" />
    <path
       d="m 460.7418,163.77918 c -7.07639,3.15253 -15.49672,1.74332 -22.4903,-1.02052 -6.81587,-2.53673 -11.5649,-9.81708 -9.92392,-17.11174 1.13246,-7.78191 9.20736,-14.74662 17.21036,-11.99696 5.21233,2.02871 0.51226,-7.78347 -0.58251,-10.43603 -2.9258,-6.15757 -6.60643,-11.91764 -10.40145,-17.56839 7.52561,-3.53498 15.46845,-6.530468 23.69199,-7.916228 2.98635,-0.73651 3.13519,3.260118 4.6,5.032228 4.02937,9.31772 3.7528,19.89375 3.30326,29.85899 -0.71018,10.53897 -2.69269,20.96171 -5.40743,31.15865 z m -8.12452,-15.618 c 0.50218,-7.22999 -11.04908,-6.56673 -8.45973,0.45355 1.80702,2.78768 7.95881,4.14218 8.45973,-0.45355 z"
       style="font-size:26.6667px;font-family:'Cream and sugar';-inkscape-font-specification:'Cream and sugar';white-space:pre;display:inline;fill:#fa504b;fill-opacity:1;stroke-width:2.96259"
       id="path1-65" />
  </g>
</svg>
